<?xml version="1.0" encoding="UTF-8"?>
<svg id="Layer_3" data-name="Layer 3" xmlns="http://www.w3.org/2000/svg" viewBox="0 0 335.77 49.91">
  <defs>
    <style>
      .cls-1 {
        fill: #912b3b;
      }
    </style>
  </defs>
  <g id="Layer_1" data-name="Layer 1">
    <g>
      <g>
        <path class="cls-1" d="M91.71,44.19v5.62h-29.87V.02h5.9v44.17h23.97Z"/>
        <path class="cls-1" d="M154.31.02l-13.87,49.79h-7.47l-5.05-17.99-6.12-24.68h-1.07l-6.12,24.68-4.98,17.99h-7.54L88.23.02h6.12l6.61,23.83,4.98,19.91,4.91-19.91L117.47.02h7.61l6.61,23.83,4.98,19.99,4.98-19.99L148.19.02h6.12Z"/>
        <path class="cls-1" d="M183.43,5.43h0c1.77,0,3.5.37,5.13,1.09,7.91,3.52,10.36,14.1,5.69,24.61-3.6,8.11-10.28,13.34-17.01,13.34-1.76,0-3.48-.37-5.11-1.09-3.63-1.61-6.27-4.85-7.42-9.12-1.27-4.7-.68-10.21,1.68-15.52,3.59-8.09,10.29-13.32,17.05-13.32M183.42,0c-8.67,0-17.4,6.17-22.01,16.55-5.93,13.36-2.12,27.08,8.5,31.8,2.37,1.05,4.84,1.56,7.32,1.56,8.66,0,17.37-6.18,21.98-16.57,5.93-13.36,2.18-27.06-8.45-31.78C188.38.5,185.91,0,183.42,0h0Z"/>
        <path class="cls-1" d="M228.12,30.54h-9.67v19.27h-5.9V.02h19.7c11.02,0,16.86,6.4,16.86,15.36,0,8.25-4.98,13.94-14.01,15.01l15.93,19.42h-7.33l-15.58-19.27ZM218.45,25.27h13.23c7.89,0,11.45-4.27,11.45-9.89s-3.63-9.74-11.45-9.74h-13.23v19.63Z"/>
        <path class="cls-1" d="M277.9,31.96v17.85h-5.9v-17.71L253.58.02h6.69l14.65,25.46L289.57.02h6.76l-18.42,31.93Z"/>
        <path class="cls-1" d="M323.61,34.87h-23.12l-5.9,14.94h-6.26L308.24.02h7.61l19.92,49.79h-6.26l-5.9-14.94ZM321.4,29.26l-9.32-23.61-9.32,23.61h18.63Z"/>
      </g>
      <polygon class="cls-1" points="55.11 49.81 38.06 .02 17.05 .02 0 49.81 5.9 49.81 20.86 6.13 35.82 49.81 55.11 49.81"/>
    </g>
  </g>
</svg>